<svg xmlns="http://www.w3.org/2000/svg" xmlns:xlink="http://www.w3.org/1999/xlink" style="margin: auto; background: rgb(20, 20, 20); display: block;" width="101px" height="101px" viewBox="0 0 100 100" preserveAspectRatio="xMidYMid">
 <g transform="translate(50 50)">  <g transform="translate(-19 -19) scale(0.6)"> <g>
<animateTransform attributeName="transform" type="rotate" values="0;45" keyTimes="0;1" dur="0.2s" begin="0s" repeatCount="indefinite"></animateTransform><path d="M31.070237969796747 21.87784981437163 L38.141305781662226 28.948917626237105 L28.948917626237105 38.14130578166222 L21.87784981437163 31.070237969796743 A38 38 0 0 1 6.5 37.43995192304605 L6.5 37.43995192304605 L6.500000000000001 47.43995192304605 L-6.499999999999995 47.43995192304606 L-6.499999999999996 37.43995192304606 A38 38 0 0 1 -21.877849814371626 31.070237969796747 L-21.877849814371626 31.070237969796747 L-28.9489176262371 38.141305781662226 L-38.14130578166222 28.948917626237105 L-31.070237969796743 21.87784981437163 A38 38 0 0 1 -37.43995192304605 6.5000000000000036 L-37.43995192304605 6.5000000000000036 L-47.43995192304605 6.500000000000004 L-47.43995192304606 -6.499999999999993 L-37.43995192304606 -6.499999999999994 A38 38 0 0 1 -31.070237969796747 -21.877849814371626 L-31.070237969796747 -21.877849814371626 L-38.141305781662226 -28.9489176262371 L-28.94891762623711 -38.14130578166222 L-21.877849814371633 -31.070237969796743 A38 38 0 0 1 -6.500000000000005 -37.43995192304605 L-6.500000000000005 -37.43995192304605 L-6.500000000000007 -47.43995192304605 L6.49999999999999 -47.43995192304606 L6.499999999999992 -37.43995192304606 A38 38 0 0 1 21.877849814371622 -31.07023796979675 L21.877849814371622 -31.07023796979675 L28.948917626237098 -38.141305781662226 L38.14130578166221 -28.94891762623711 L31.07023796979674 -21.877849814371633 A38 38 0 0 1 37.43995192304605 -6.500000000000007 L37.43995192304605 -6.500000000000007 L47.43995192304605 -6.50000000000001 L47.43995192304606 6.499999999999987 L37.43995192304606 6.499999999999989 A38 38 0 0 1 31.07023796979675 21.877849814371622 M0 -24A24 24 0 1 0 0 24 A24 24 0 1 0 0 -24" fill="#ffcc5c"></path></g></g> <g transform="translate(19 19) scale(0.6)"> <g>
<animateTransform attributeName="transform" type="rotate" values="45;0" keyTimes="0;1" dur="0.2s" begin="-0.1s" repeatCount="indefinite"></animateTransform><path d="M-31.070237969796747 -21.877849814371626 L-38.141305781662226 -28.9489176262371 L-28.94891762623711 -38.14130578166222 L-21.877849814371633 -31.070237969796743 A38 38 0 0 1 -6.500000000000005 -37.43995192304605 L-6.500000000000005 -37.43995192304605 L-6.500000000000007 -47.43995192304605 L6.49999999999999 -47.43995192304606 L6.499999999999992 -37.43995192304606 A38 38 0 0 1 21.877849814371622 -31.07023796979675 L21.877849814371622 -31.07023796979675 L28.948917626237098 -38.141305781662226 L38.14130578166221 -28.94891762623711 L31.07023796979674 -21.877849814371633 A38 38 0 0 1 37.43995192304605 -6.500000000000007 L37.43995192304605 -6.500000000000007 L47.43995192304605 -6.50000000000001 L47.43995192304606 6.499999999999987 L37.43995192304606 6.499999999999989 A38 38 0 0 1 31.07023796979675 21.877849814371622 L31.07023796979675 21.877849814371622 L38.141305781662226 28.948917626237098 L28.948917626237115 38.14130578166221 L21.877849814371636 31.07023796979674 A38 38 0 0 1 6.50000000000001 37.43995192304605 L6.50000000000001 37.43995192304605 L6.500000000000008 47.43995192304605 L-6.500000000000022 47.43995192304605 L-6.50000000000002 37.43995192304605 A38 38 0 0 1 -21.87784981437156 31.07023796979679 L-21.87784981437156 31.07023796979679 L-28.948917626237026 38.141305781662275 L-38.141305781662204 28.94891762623712 L-31.070237969796736 21.877849814371636 A38 38 0 0 1 -37.439951923046046 6.500000000000045 L-37.439951923046046 6.500000000000045 L-47.439951923046046 6.500000000000049 L-47.43995192304605 -6.500000000000014 L-37.43995192304605 -6.500000000000018 A38 38 0 0 1 -31.07023796979675 -21.877849814371615 M0 -24A24 24 0 1 0 0 24 A24 24 0 1 0 0 -24" fill="#c91278"></path></g></g></g>
</svg>